Coordinates
version=1
nRows=8
nColumns=28
inDegrees=yes

Units are S.I. units (second, meters, Newtons, ...)
Angles are in degrees.

endheader
time	pelvis_tilt	pelvis_list	pelvis_rotation	pelvis_tx	pelvis_ty	pelvis_tz	hip_flexion_r	hip_adduction_r	hip_rotation_r	knee_angle_r	ankle_angle_r	subtalar_angle_r	mtp_angle_r	hip_flexion_l	hip_adduction_l	hip_rotation_l	knee_angle_l	socket_flexion	socket_adduction	socket_rotation	socket_tx	socket_ty	socket_tz	foot_flex	lumbar_extension	lumbar_bending	lumbar_rotation
      0.32083333	      2.94006428	      0.55325182	     -5.15888268	     -0.44358805	      1.01852292	      0.28579935	     12.32354410	     -0.11079574	      3.03525372	    -64.78341486	     -4.22588208	    -20.30092137	     25.03183350	     -2.62421569	      3.22198878	      9.09985317	     -2.10084201	      0.00000000	      0.00000000	      0.00000000	      0.00000000	      0.00000000	      0.00000000	      1.76817401	    -12.09669443	     -4.82112257	      5.50006357
      0.32500000	      2.99944625	      0.37767922	     -5.04804876	     -0.43851613	      1.01896073	      0.28552335	     12.75402787	      0.14447075	      3.03971816	    -64.45598513	     -3.83852087	    -20.08235312	     25.16365068	     -3.09629784	      3.05896354	      9.20304138	     -1.94715600	      0.00000000	      0.00000000	      0.00000000	      0.00000000	      0.00000000	      0.00000000	      1.88790277	    -12.18149517	     -4.60296911	      5.36744097
      0.32916667	      3.20013277	      0.12356183	     -4.82263301	     -0.43352794	      1.01964977	      0.28504770	     12.97034472	      0.42909023	      2.92182162	    -64.00253699	     -3.21195621	    -19.26253663	     25.47317657	     -3.69739393	      2.82036652	      9.37567058	     -1.82987301	      0.00000000	      0.00000000	      0.00000000	      0.00000000	      0.00000000	      0.00000000	      1.98844881	    -12.47581137	     -4.25641756	      4.97809058
      0.33333333	      3.23181477	      0.12248797	     -4.71217268	     -0.42882981	      1.01990163	      0.28485103	     13.50879723	      0.48755884	      2.92723713	    -63.68954900	     -3.14680141	    -19.25563574	     25.48330725	     -4.03846326	      2.85001194	      9.38788800	     -1.79347760	      0.00000000	      0.00000000	      0.00000000	      0.00000000	      0.00000000	      0.00000000	      2.04550201	    -12.58982160	     -4.26229931	      4.96495688
      0.33750000	      3.22834812	     -0.05580231	     -4.57620683	     -0.42362066	      1.02015019	      0.28468496	     13.95026974	      0.76774393	      2.94324187	    -63.24417229	     -2.73088484	    -19.16429172	     25.58471280	     -4.49611683	      2.65177016	      9.54284748	     -1.54362904	      0.00000000	      0.00000000	      0.00000000	      0.00000000	      0.00000000	      0.00000000	      2.20877192	    -12.53664112	     -4.07902154	      4.85101352
      0.34166667	      3.38268038	     -0.38594883	     -4.19508505	     -0.41871310	      1.02076744	      0.28407119	     14.14134648	      1.11516753	      2.68425992	    -62.62551383	     -1.96558465	    -18.23413968	     25.88815086	     -5.01869830	      2.30182227	      9.82177530	     -1.45881320	      0.00000000	      0.00000000	      0.00000000	      0.00000000	      0.00000000	      0.00000000	      2.30373511	    -12.80324678	     -3.59148532	      4.23437186
      0.34583333	      3.41159187	     -0.38366463	     -4.07738788	     -0.41426491	      1.02091299	      0.28393939	     14.69129912	      1.16801875	      2.68463692	    -62.26105830	     -1.90216174	    -18.23422774	     25.89343741	     -5.33076112	      2.32269857	      9.81091444	     -1.43897577	      0.00000000	      0.00000000	      0.00000000	      0.00000000	      0.00000000	      0.00000000	      2.35369338	    -12.93324841	     -3.60287752	      4.22342236
      0.35000000	      3.31689497	     -0.72479640	     -3.83248572	     -0.40916812	      1.02114098	      0.28370420	     15.12318106	      1.63774271	      2.61314731	    -61.57251352	     -1.30484280	    -18.09443375	     26.01009655	     -5.64663492	      1.92564682	      9.96975635	     -1.26342675	      0.00000000	      0.00000000	      0.00000000	      0.00000000	      0.00000000	      0.00000000	      2.50463096	    -12.84130570	     -3.16879682	      4.01541532
